<svg xmlns="http://www.w3.org/2000/svg" xmlns:xlink="http://www.w3.org/1999/xlink" width="27" height="24" viewBox="0 0 27 24"><defs><path id="zk4ya" d="M1182.25 552.92a1.88 1.88 0 1 1 0 3.76 1.88 1.88 0 0 1 0-3.76zm7.62 0a1.88 1.88 0 1 1 0 3.76 1.88 1.88 0 0 1 0-3.76zm5.84-8.83l-2.32 6.88s-.19 1.02-1.16 1.02h-11.7c-1.16 0-1.21-1.28-1.21-1.28s-1.24-9.22-1.3-9.78c-.07-.55-.78-.96-.78-.96l-3.06-1.44c-1.68-.87-.92-2.54 0-2.16 3.88 1.83 5.69 2.74 5.8 3.46.12.72.33 2.46.33 2.46v.01h14.36c1.73 0 1.04 1.79 1.04 1.79zm-3.35 3.83H1181l.23 1.85h10.58zm1.1-3.74h-12.93l.25 1.98h12.1z"/></defs><g><g transform="translate(-1171 -534)"><use fill="#265c99" xlink:href="#zk4ya"/></g></g></svg>