<svg xmlns="http://www.w3.org/2000/svg" xmlns:xlink="http://www.w3.org/1999/xlink" width="23" height="20" viewBox="0 0 23 20"><defs><path id="j1hra" d="M1124.63 100.85a1.57 1.57 0 1 1 0 3.14 1.57 1.57 0 0 1 0-3.14zm6.35 0a1.57 1.57 0 1 1 0 3.14 1.57 1.57 0 0 1 0-3.14zm4.87-7.36l-1.93 5.73s-.16.86-.98.86h-9.74c-.97 0-1.01-1.07-1.01-1.07s-1.04-7.68-1.09-8.15c-.05-.46-.64-.8-.64-.8l-2.56-1.2c-1.4-.73-.76-2.12 0-1.8 3.24 1.53 4.75 2.28 4.84 2.88.1.6.27 2.05.27 2.05V92H1134.98c1.44 0 .87 1.5.87 1.49zm-2.8 3.2h-9.46l.2 1.54h8.8zm.93-3.12h-10.78l.2 1.65h10.09z"/></defs><g><g transform="translate(-1115 -85)"><use fill="#fff" xlink:href="#j1hra"/></g></g></svg>