<svg xmlns="http://www.w3.org/2000/svg" xmlns:xlink="http://www.w3.org/1999/xlink" width="20" height="19" viewBox="0 0 20 19"><defs><path id="en86a" d="M984 88.28c0-.21.17-.38.37-.38h1.11v-1.52c0-.21.17-.38.37-.38h4.45c.2 0 .37.17.37.38v1.52h12.96c.2 0 .37.17.37.38s-.17.38-.37.38h-12.96v1.52c0 .21-.17.38-.37.38h-4.45a.37.37 0 0 1-.37-.38v-1.52h-1.11a.37.37 0 0 1-.37-.38zm2.22 1.52h3.7v-3.04h-3.7zm17.78 5.7c0 .21-.17.38-.37.38h-7.04v1.52c0 .21-.16.38-.37.38h-4.44a.37.37 0 0 1-.37-.38v-1.52h-7.04a.37.37 0 0 1-.37-.38c0-.21.17-.38.37-.38h7.04V93.6c0-.21.16-.38.37-.38h4.44c.2 0 .37.17.37.38v1.52h7.04c.2 0 .37.17.37.38zm-8.15-1.52h-3.7v3.04h3.7zm8.15 8.74c0 .21-.17.38-.37.38h-1.11v1.52c0 .21-.17.38-.37.38h-4.45a.37.37 0 0 1-.37-.38v-1.52h-12.96a.37.37 0 0 1-.37-.38c0-.21.17-.38.37-.38h12.96v-1.52c0-.21.17-.38.37-.38h4.45c.2 0 .37.17.37.38v1.52h1.11c.2 0 .37.17.37.38zm-2.22-1.52h-3.7v3.04h3.7z"/></defs><g><g transform="translate(-984 -86)"><use fill="#636363" xlink:href="#en86a"/></g></g></svg>