<svg xmlns="http://www.w3.org/2000/svg" xmlns:xlink="http://www.w3.org/1999/xlink" width="15" height="16" viewBox="0 0 15 16"><defs><path id="43ywa" d="M576.26 43.13a.64.64 0 0 1-.92-.02l-2.96-3.15c-.84.6-1.83.93-2.86.93a5.05 5.05 0 0 1-4.99-5.1c0-2.82 2.24-5.1 5-5.1a5.05 5.05 0 0 1 4.98 5.1c0 1.2-.41 2.35-1.17 3.27l2.94 3.13c.25.27.24.69-.02.94zm-10.43-7.35a3.73 3.73 0 0 0 3.7 3.77c2.02 0 3.68-1.69 3.68-3.77a3.73 3.73 0 0 0-3.69-3.77 3.73 3.73 0 0 0-3.69 3.77z"/></defs><g><g transform="translate(-563 -29)"><use fill="#fff" xlink:href="#43ywa"/></g></g></svg>